<?xml version="1.0" standalone="no"?>
<!DOCTYPE svg PUBLIC "-//W3C//DTD SVG 1.1//EN" "http://www.w3.org/Graphics/SVG/1.1/DTD/svg11.dtd" >
<svg xmlns="http://www.w3.org/2000/svg">
<metadata>Generated by IcoMoon</metadata>
<defs>
<font id="icomoon" horiz-adv-x="1024">
<font-face units-per-em="1024" ascent="960" descent="-64" />
<missing-glyph horiz-adv-x="1024" />
<glyph unicode="&#x20;" d="" horiz-adv-x="512" />
<glyph unicode="&#xe600;" d="M909.182 843.059c-42.080 33.471-103.233 26.576-136.718-15.387l-379.692-571.29-165.765 165.676c-34.045 34.174-87.586 35.901-119.562 4.007-31.894-31.894-30.126-85.402 4.007-119.576l249.89-249.945c29.245-29.116 71.817-33.13 103.779-14.138 13.804 6.164 26.433 15.155 36.461 27.737l422.892 636.307c33.567 41.977 26.583 103.076-15.292 136.608z" />
<glyph unicode="&#xe601;" d="M383.469 348.501h-129.252v129.252h129.252v-129.252zM578.75 477.753h-129.252v-129.252h129.252v129.252zM774.030 477.753h-129.252v-129.252h129.252v129.252zM383.469 289.033h-129.252v-129.252h129.252v129.252zM578.75 289.033h-129.252v-129.252h129.252v129.252zM774.030 289.033h-129.252v-129.252h129.252v129.252zM822.196 738.645c0-22.035-17.863-39.86-39.86-39.86-22.035 0-39.86 17.863-39.86 39.86v100.352c0 22.035 17.863 39.86 39.86 39.86 22.035 0 39.86-17.863 39.86-39.86v-100.352zM283.496 839.187c0 22.035-17.863 39.86-39.86 39.86-22.035 0-39.86-17.863-39.86-39.86v-100.352c0-22.035 17.863-39.86 39.86-39.86 22.035 0 39.86 17.863 39.86 39.86v100.352zM870.362 780.971v-40.846c0-48.545-39.519-88.064-88.064-88.064s-88.064 39.519-88.064 88.064v40.846h-362.572v-40.657c0-48.545-39.519-88.064-88.064-88.064s-88.064 39.519-88.064 88.064v40.657h-95.611v-787.721h904.002v787.721h-93.563zM876.203 81.010h-728.481v488.145h728.481v-488.145z" />
<glyph unicode="&#xe602;" d="M41.794 743.879c250.728-231.007 486.969-476.956 733.222-712.59 70.277-67.243 283.724 23.893 207.189 97.128-246.291 235.634-482.494 481.583-733.222 712.59-71.415 65.801-284.482-25.903-207.189-97.128v0zM249.325 39.253c231.007 250.728 476.956 486.969 712.59 733.222 97.242 101.641-121.211 129.555-187.24 60.53-235.634-246.253-481.583-482.456-712.59-733.184-95.573-103.765 122.273-131.072 187.24-60.568v0z" />
<glyph unicode="&#xe603;" d="M99.935 661.125c-0.076 18.015 17.787 30.492 48.621 30.53l124.625 4.324 200.059-266.088c21.807-29.999 57.344-29.924 78.924 0.228l208.1 258.958 114.385 4.551c30.834 0.076 48.773-12.288 48.849-30.265 0.038-7.32-2.92-15.588-9.14-24.348l-360.941-435.465c-21.58-30.113-57.079-30.227-78.924-0.19l-365.189 433.493c-6.334 8.723-9.33 16.953-9.368 24.273z" />
<glyph unicode="&#xe604;" d="M400.27 588.876h-96.863v-158.113h96.863v-464.479h186.254v466.451h129.934l13.843 156.141h-143.777c0 0 0 58.292 0 88.936 0 36.826 7.396 51.39 42.97 51.39 28.672 0 100.807 0 100.807 0v162.057c0 0-106.268 0-128.948 0-138.581 0-201.083-61.023-201.083-177.873 0-101.793 0-124.511 0-124.511z" />
<glyph unicode="&#xe605;" d="M511.355 171.691l-293.016-209.617 101.262 345.316-281.676 233.851 342.623 2.958 130.807 366.023 127.166-368.981h347.553l-283.003-236.127 101.262-343.040-292.978 209.617z" />
<glyph unicode="&#xe606;" d="M989.222 699.013h-126.521v-126.559h-63.26v126.559h-126.559v63.298h126.559v126.521h63.26v-126.521h126.521v-63.298zM631.505 175.673c0-94.853-86.623-210.337-304.507-210.337-159.365 0-292.257 68.722-292.257 184.32 0 89.24 56.472 205.065 320.436 205.065-39.215 31.972-48.811 76.648-24.879 125.004-154.548 0-233.7 90.871-233.7 206.241 0 112.905 83.968 215.533 255.166 215.533 43.236 0 274.28 0 274.28 0l-61.288-64.322h-71.983c50.783-29.089 77.824-89.050 77.824-155.117 0-60.644-33.375-109.758-81.048-146.584-84.575-65.384-62.919-101.869 25.676-166.495 87.419-65.46 116.281-116.015 116.281-193.308zM460.421 677.926c-12.743 97.090-76.004 176.735-149.883 178.935-73.918 2.2-123.487-72.097-110.744-169.188 12.781-97.090 83.020-164.902 156.937-167.14 73.918-2.162 116.433 60.302 103.689 157.393zM536.614 165.926c0 79.834-72.856 155.951-195.053 155.951-110.137 1.214-203.473-69.594-203.473-151.666 0-83.74 79.531-153.486 189.705-153.486 140.819 0 208.82 65.46 208.82 149.201z" />
<glyph unicode="&#xe607;" d="M425.984 924.444c0 0 46.649-79.379-98.797-265.481-145.484-186.065-392.495-556.449 32.92-687.407-101.566 123.639-85.599 318.35 109.53 521.785 197.86-149.125 234.648-379.601 84.537-521.785 341.182 70.466 514.086 310.689 272.536 610.266 0-145.294-36.826-187.127-103.5-212.347 43.122 232.107-228.58 514.086-297.225 554.97z" />
<glyph unicode="&#xe608;" d="M753.854 886.177c19.57 0.076 33.109-19.342 33.185-52.869l4.703-135.509-289.337-217.543c-32.616-23.704-32.54-62.35 0.228-85.826l281.6-226.266 4.93-124.397c0.076-33.527-13.35-53.020-32.92-53.134-7.964-0.038-16.953 3.186-26.472 9.975l-473.467 392.533c-32.768 23.438-32.882 62.085-0.228 85.788l471.381 397.047c9.481 6.903 18.432 10.164 26.396 10.202z" />
<glyph unicode="&#xe609;" d="M512 929.185c-272.308 0-493.037-220.729-493.037-493.037s220.729-493.037 493.037-493.037 493.037 220.729 493.037 493.037-220.729 493.037-493.037 493.037zM816.507 408.803l-438.879-251.676c-7.623-4.361 9.785-6.409 3.413-6.409-15.701 0-1.745 12.402-1.745 33.792v247.922c0 2.465 0 4.968 0 7.471v247.922c0 21.39-13.919 33.792 1.745 33.792 6.409 0 1.062-2.048 8.685-6.409l432.849-251.676c26.207-15.057 20.177-39.708-6.068-54.727z" />
<glyph unicode="&#xe60a;" d="M937.301 355.138c101.148 0.152 95.611 175.218-4.134 175.218-341.144 0-477.525 0.19-821.134 0.19-138.733 0-117.836-176.545-21.921-176.014 498.385 2.882 490.648 0.038 847.189 0.607zM440.623 10.695c0.152-101.148 175.218-95.611 175.218 4.134 0 341.144 0.228 477.525 0.228 821.134 0 138.733-176.545 117.836-176.014 21.921 2.807-498.385 0-490.648 0.569-847.189z" />
<glyph unicode="&#xe60b;" d="M269.577 886.177c7.964-0.038 16.915-3.3 26.396-10.202l471.381-397.047c32.654-23.742 32.54-62.35-0.228-85.788l-473.505-392.457c-9.519-6.789-18.508-9.975-26.472-9.975-19.57 0.076-32.996 19.608-32.92 53.134l4.93 124.397 281.6 226.266c32.768 23.476 32.882 62.085 0.228 85.826l-289.299 217.467 4.703 135.509c0.038 33.527 13.615 52.945 33.185 52.869z" />
<glyph unicode="&#xe60c;" d="M988.312 81.123c-89.695 71.073-184.206 135.699-268.136 213.675 47.635 63.716 76.231 142.488 76.231 227.973 0 210.641-171.425 382.028-382.066 382.028s-381.99-171.387-381.99-382.028 171.387-382.028 382.028-382.028c68.57 0 132.817 18.394 188.492 50.138 85.675-81.010 182.993-146.925 275.228-220.046 33.261-26.359 77.634-32.616 110.251 0 27.42 27.458 33.337 83.854-0.038 110.289zM149.276 522.771c0 146.167 118.936 265.102 265.102 265.102s265.102-118.936 265.102-265.102-118.936-265.064-265.102-265.064-265.102 118.898-265.102 265.064z" />
<glyph unicode="&#xe60d;" d="M697.989 598.547c-28.407 0-55.106-7.433-78.203-20.48-15.246-8.609-34.057-8.078-48.811 1.365l-165.167 105.775c-12.781 8.192-20.821 21.997-21.732 37.129-3.413 58.899-52.376 106.724-113.323 106.724-62.692 0-113.512-50.821-113.512-113.512 0-80.403 81.048-134.637 154.814-105.775 14.108 5.537 30.037 3.944 42.78-4.248l142.222-91.060c25.828-16.536 41.567-45.132 41.681-75.776 0 0 0 0 0-0.038 0.114-29.734-15.019-57.458-40.050-73.463l-143.891-92.122c-12.743-8.154-28.672-9.747-42.78-4.21-73.842 28.9-154.814-25.486-154.814-105.775 0-62.692 50.821-113.512 113.512-113.512 60.909 0 109.909 47.749 113.323 106.724 0.872 15.132 8.951 28.975 21.732 37.129l165.205 105.775c14.753 9.444 33.564 9.975 48.811 1.365 23.097-13.047 49.797-20.518 78.203-20.518 87.988 0 159.289 71.301 159.289 159.289 0 87.912-71.301 159.213-159.289 159.213z" />
<glyph unicode="&#xe60e;" d="M804.447 888.187h-584.894c-88.102 0-159.516-70.542-159.516-157.582v-373.495c0-87.040 71.415-157.582 159.516-157.582h345.96l144.119-215.457 46.383 215.457h48.431c88.102 0 159.516 70.58 159.516 157.582v373.495c0 87.040-71.415 157.582-159.516 157.582z" />
<glyph unicode="&#xe60f;" d="M804.447 850.261c67.053 0 121.591-53.665 121.591-119.656v-373.495c0-65.991-54.537-119.656-121.591-119.656h-79.076l-33.982-157.924-105.624 157.886h-366.213c-67.053 0-121.591 53.665-121.591 119.656v373.532c0 65.991 54.537 119.656 121.591 119.656h584.894zM804.447 888.187h-584.894c-88.102 0-159.516-70.542-159.516-157.582v-373.495c0-87.040 71.415-157.582 159.516-157.582h345.96l144.119-215.457 46.383 215.457h48.431c88.102 0 159.516 70.58 159.516 157.582v373.495c0 87.040-71.415 157.582-159.516 157.582v0z" />
<glyph unicode="&#xe610;" d="M512 881.778c-246.101 0-445.63-199.528-445.63-445.63s199.528-445.63 445.63-445.63c246.101 0 445.63 199.528 445.63 445.63s-199.528 445.63-445.63 445.63zM512 70.77c-201.956 0-365.378 163.423-365.378 365.378s163.423 365.378 365.378 365.378c201.918 0 365.378-163.423 365.378-365.378 0-201.918-163.423-365.378-365.378-365.378zM801.906 413.772c3.906-0.683 6.751-4.058 6.751-8.040v-0.228c0-3.944-2.807-7.282-6.675-8.002-84.802-15.853-285.696-48.811-307.731-48.811-31.554 0-57.154 25.6-57.154 57.154 0 22.49 33.792 239.275 49.417 327.073 0.607 3.527 3.679 6.106 7.282 6.106v0c3.906 0 7.244-2.844 7.851-6.713l43.273-274.091 256.986-44.449z" />
<glyph unicode="&#xe611;" d="M1011.598 745.624c-36.864-16.346-76.497-27.42-118.063-32.389 42.439 25.448 75.055 65.726 90.377 113.74-39.708-23.552-83.703-40.657-130.541-49.873-37.509 39.974-90.908 64.929-150.073 64.929-132.703 0-230.248-123.828-200.249-252.435-170.856 8.571-322.332 90.415-423.708 214.775-53.855-92.388-27.951-213.257 63.602-274.47-33.678 1.062-65.384 10.316-93.108 25.714-2.238-95.232 66.029-184.32 164.902-204.155-28.937-7.889-60.606-9.671-92.843-3.527 26.169-81.655 102.097-141.122 192.057-142.753-86.433-67.736-195.281-98.001-304.356-85.144 90.984-58.33 199.035-92.35 315.127-92.35 381.687 0 597.333 322.37 584.325 611.518 40.164 28.975 75.017 65.195 102.552 106.42z" />
<glyph unicode="&#xe612;" d="M99.935 215.76c0.038 7.32 3.034 15.588 9.368 24.273l365.151 433.493c21.807 30.037 57.344 29.924 78.924-0.19l360.941-435.465c6.258-8.723 9.178-17.029 9.14-24.348-0.076-17.977-18.015-30.341-48.849-30.303l-114.385 4.551-208.1 258.996c-21.58 30.151-57.116 30.227-78.924 0.228l-200.021-266.088-124.625 4.324c-30.834 0.038-48.697 12.516-48.621 30.53z" />
<glyph unicode="&#xe613;" d="M513.934 285.468c85.826 0 155.42 69.556 155.42 155.42v312.168c0 85.826-69.594 155.42-155.42 155.42-85.864 0-155.42-69.594-155.42-155.42v-312.168c0-85.864 69.594-155.42 155.42-155.42zM741.831 504.073v-63.374c0-125.687-102.21-227.897-227.897-227.897s-227.897 102.21-227.897 227.897v63.374h-62.274v-63.374c0-149.466 113.626-272.877 259.034-288.503v-115.371h-171.387v-62.312h405.087v62.312h-171.387v115.371c145.408 15.588 259.034 138.999 259.034 288.503v63.374h-62.312z" />
<glyph unicode="&#xe614;" d="M218.984 909.691h56.851l38.95-146.091 36.181 146.091h57.344l-65.726-217.24v-148.252h-56.434v148.252l-67.167 217.24zM405.732 611.442c0-47.521 24.841-72.249 73.425-72.249 40.315 0 72.059 26.965 72.059 72.249v132.172c0 42.212-31.441 72.439-72.059 72.439-44.146 0-73.425-29.165-73.425-72.439v-132.172zM457.311 739.138c0 14.753 6.789 25.714 20.859 25.714 15.36 0 21.959-10.619 21.959-25.714v-125.421c0-14.677-7.471-25.524-20.973-25.524-13.843 0-21.845 11.34-21.845 25.524v125.421zM686.763 813.814v-204.648c-6.106-7.661-19.721-20.177-29.506-20.177-10.733 0-13.35 7.32-13.35 18.167v206.658h-50.138v-225.356c0-26.624 8.154-48.166 35.006-48.166 15.17 0 36.219 7.889 57.951 33.64v-29.772h50.138v269.653h-50.1zM612.997 261.12c3.413-4.475 5.082-11.074 5.082-19.721v-132.589c0-8.192-1.365-14.071-4.134-17.711-5.272-6.903-16.649-6.561-24.424-2.655-3.641 1.858-7.433 4.855-11.302 9.026v160.047c3.224 3.527 6.523 6.144 9.861 7.813 8.382 4.248 19.153 3.451 24.917-4.21zM773.727 266.96c-17.673 0-21.314-12.44-21.314-30.075v-25.979h42.174v25.979c-0.038 17.332-3.717 30.075-20.859 30.075zM919.287 77.558c0-63.488-51.465-114.953-114.953-114.953h-590.81c-63.488 0-114.953 51.465-114.953 114.953v290.361c0 63.488 51.465 114.953 114.953 114.953h590.848c63.488 0 114.953-51.465 114.953-114.953v-290.361h-0.038zM292.257 346.188h55.599v50.517h-164.978v-50.517h55.599v-297.529h53.779v297.529zM483.48 305.417h-47.749v-194.901c-5.841-7.282-18.773-19.228-28.065-19.228-10.202 0-12.705 6.978-12.705 17.294v196.836h-47.749v-214.585c0-52.11 35.309-52.414 61.061-37.698 9.519 5.461 18.66 13.426 27.458 23.855v-28.331h47.749v256.759zM667.231 244.281c0 34.816-11.567 64.36-46.535 64.36-17.029 0-31.668-10.885-42.439-24.007v112.071h-48.204v-348.046h48.204v19.721c13.312-16.612 27.876-22.983 45.359-22.983 31.744 0 43.653 24.69 43.653 56.434v142.45zM843.7 236.392c0 46.421-22.111 75.511-67.925 75.511-43.046 0-72.514-30.948-72.514-75.511v-115.257c0-46.232 23.324-79.417 68.911-79.417 50.29 0 71.528 29.961 71.528 79.417v19.304h-49.152v-17.863c0-22.338-1.176-35.916-21.314-35.916-19.228 0-20.859 16.649-20.859 35.916v48.431h91.288l0.038 65.384z" />
</font>
</defs>
</svg>
