<?xml version="1.0" encoding="utf-8"?>
<!-- Generator: Adobe Illustrator 21.1.0, SVG Export Plug-In . SVG Version: 6.00 Build 0)  -->
<svg version="1.1"
	 id="Layer_1" xmlns:cc="http://creativecommons.org/ns#" xmlns:dc="http://purl.org/dc/elements/1.1/" xmlns:inkscape="http://www.inkscape.org/namespaces/inkscape" xmlns:rdf="http://www.w3.org/1999/02/22-rdf-syntax-ns#" xmlns:sodipodi="http://sodipodi.sourceforge.net/DTD/sodipodi-0.dtd" xmlns:svg="http://www.w3.org/2000/svg"
	 xmlns="http://www.w3.org/2000/svg" xmlns:xlink="http://www.w3.org/1999/xlink" x="0px" y="0px" width="100px" height="125px"
	 viewBox="0 0 100 125" style="enable-background:new 0 0 100 125;" xml:space="preserve">
<style type="text/css">
	.st0{fill:#5BC5ED;}
</style>
<g transform="translate(0,-952.36218)">
	<path class="st0" d="M50,969.9c-24.8,0-45,20.2-45,45c0,24.8,20.2,45,45,45s45-20.2,45-45C95,990,74.8,969.9,50,969.9L50,969.9z
		 M50,975.9c21.6,0,39,17.4,39,39s-17.4,39-39,39s-39-17.4-39-39C11,993.3,28.4,975.9,50,975.9L50,975.9z M57,983.9
		c-2.8,0-5,2.2-5,5s2.2,5,5,5s5-2.2,5-5S59.8,983.9,57,983.9z M50.9,994.9c-3.6,0.2-7.4,1.9-10.7,4.4l-0.3,3.8
		c3-1.2,6.2-1.2,7.1,1.7c2.3,6.9-5.5,19-7.6,25.3c-5.8,17.1,8.1,19.1,18,12.1l0.4-4.1c-5.4,1.7-9.2-0.4-6.1-9.3
		c1.5-4.3,14-26.1,5.4-32.1C55.2,995.3,53.1,994.8,50.9,994.9z"/>
</g>
</svg>
