<?xml version="1.0" encoding="utf-8"?>
<!-- Generator: Adobe Illustrator 21.1.0, SVG Export Plug-In . SVG Version: 6.00 Build 0)  -->
<svg version="1.1" id="Layer_1" xmlns="http://www.w3.org/2000/svg" xmlns:xlink="http://www.w3.org/1999/xlink" x="0px" y="0px"
	 width="100px" height="125px" viewBox="0 0 100 125" style="enable-background:new 0 0 100 125;" xml:space="preserve">
<style type="text/css">
	.st0{fill:#F07D00;}
</style>
<g>
	<path class="st0" d="M85.5,101c5.4-5.8,8.6-13.6,8.6-22.2c0-8.9-3.6-17-9.4-22.8c-2.5,20.9-20.5,37.1-42.3,37H31.9
		c5.3,11.1,16.5,18.7,29.6,18.6l35.6-0.1L85.5,101z"/>
	<path class="st0" d="M43.7,13.3C23.1,13.3,6.3,30,6.2,50.6c0,9.8,3.7,18.7,9.9,25.4L2.7,88l40.8,0.1C64.2,88.2,81,71.5,81.1,50.8
		C81.1,30.2,64.4,13.4,43.7,13.3z M45.2,64.3H27v-5.5h18.2V64.3z M60.9,52.2H27v-5.5h33.8v5.5H60.9z M60.9,40.8H27v-5.5h33.8v5.5
		H60.9z"/>
</g>
</svg>
